<?xml version="1.0" encoding="UTF-8"?>
<svg id="_レイヤー_2" data-name="レイヤー 2" xmlns="http://www.w3.org/2000/svg" viewBox="0 0 376.53 105.18">
  <defs>
    <style>
      .cls-1 {
        fill: #231815;
        stroke-width: 0px;
      }
    </style>
  </defs>
  <g id="_レイヤー_1-2" data-name=" レイヤー 1">
    <g>
      <g>
        <g>
          <g>
            <path class="cls-1" d="m28.87,73.83c-.06,0-.13,0-.2-.02-.49-.11-.8-.59-.7-1.09.44-2.02,2.2-3.55,3.6-4.47,2.16-1.44,4.53-2.6,6.81-3.72l.8-.39c5.93-2.92,10.6-5.64,12.41-11.86,2.89-9.94-4.5-18.12-11.03-25.34-1.33-1.47-2.59-2.86-3.75-4.25-4.22-5.05-7.44-11.13-9.77-18.54-2.34,7.4-5.55,13.49-9.77,18.54-1.17,1.39-2.42,2.78-3.75,4.25C7,34.16-.4,42.34,2.49,52.28c1.81,6.23,6.48,8.94,12.4,11.85.02.01.04.02.06.03l.75.37c2.28,1.12,4.65,2.28,6.81,3.72,1.39.92,3.15,2.45,3.6,4.47.11.49-.2.98-.7,1.09-.49.11-.98-.2-1.09-.7-.31-1.42-1.71-2.6-2.82-3.34-2.07-1.37-4.37-2.51-6.61-3.6l-.81-.4-.06-.03c-4.97-2.44-11.12-5.49-13.29-12.95-3.18-10.91,4.58-19.5,11.43-27.07,1.32-1.46,2.56-2.83,3.7-4.2,4.61-5.51,7.98-12.33,10.29-20.85.11-.4.47-.67.88-.67s.77.28.88.67c2.32,8.52,5.68,15.34,10.29,20.85,1.14,1.36,2.39,2.74,3.7,4.2,6.84,7.57,14.6,16.16,11.43,27.07-2.17,7.48-8.37,10.53-13.35,12.99l-.81.4c-2.23,1.1-4.54,2.23-6.61,3.6-1.12.74-2.51,1.92-2.82,3.34-.09.43-.47.72-.89.72h.02Z"/>
            <g>
              <path class="cls-1" d="m25.17,105.18h-.03c-.5,0-.9-.44-.88-.94.4-13.4.85-28.59-10.38-38.61-.38-.34-.41-.91-.07-1.29.33-.38.91-.41,1.29-.07,11.87,10.58,11.38,26.9,10.99,40.02-.01.49-.42.88-.91.88h0Z"/>
              <path class="cls-1" d="m28.92,105.18c-.49,0-.9-.39-.91-.88-.39-13.11-.88-29.43,10.97-40.02.38-.34.95-.3,1.29.07s.3.95-.07,1.29c-11.22,10.02-10.77,25.2-10.36,38.6.01.5-.38.92-.88.94h-.04Z"/>
            </g>
          </g>
          <path class="cls-1" d="m29.58,56.1h-5.07c-2.18,0-3.96-1.78-3.96-3.96v-22.13c0-3.52,2.66-6.45,6.06-6.67,1.82-.12,3.55.5,4.87,1.74,1.3,1.22,2.05,2.95,2.05,4.74v22.32c0,2.18-1.78,3.96-3.96,3.96h.01Zm-2.53-30.94c-.1,0-.21,0-.31.01-2.44.16-4.35,2.29-4.35,4.85v22.13c0,1.18.96,2.13,2.13,2.13h5.07c1.18,0,2.13-.96,2.13-2.13v-22.32c0-1.3-.52-2.51-1.48-3.41-.87-.82-2-1.26-3.19-1.26Z"/>
          <g>
            <path class="cls-1" d="m25.22,68.35c-.5,0-.91-.41-.91-.91v-12.25c0-.5.41-.91.91-.91s.91.41.91.91v12.25c0,.5-.41.91-.91.91Z"/>
            <path class="cls-1" d="m28.87,68.35c-.5,0-.91-.41-.91-.91v-12.25c0-.5.41-.91.91-.91s.91.41.91.91v12.25c0,.5-.41.91-.91.91Z"/>
          </g>
        </g>
        <g>
          <path class="cls-1" d="m58.27,104.89c-3.46,0-6.89-.23-10.27-.68-5.24-.7-9.72-2.34-13.32-4.86-1.53-1.08-4.16-3.2-4.51-5.29-.02-.1-.02-.2,0-.3.35-2.1,2.97-4.22,4.51-5.29,3.59-2.52,8.07-4.16,13.31-4.86h0c16.71-2.24,33.68.85,51.88,9.48.32.15.52.47.52.82s-.2.67-.52.82c-14.26,6.76-28.21,10.17-41.61,10.17h.01Zm-26.26-10.98c.28,1.02,1.68,2.51,3.72,3.95,3.35,2.35,7.56,3.88,12.51,4.55,15.81,2.13,31.89-.65,49.09-8.5-17.21-7.84-33.28-10.62-49.09-8.5-4.95.67-9.16,2.2-12.51,4.55-2.01,1.41-3.45,2.94-3.72,3.95Z"/>
          <path class="cls-1" d="m14.39,101.52c-.28,0-.57-.13-.74-.38-2.09-2.93-1.45-8.84-.88-12.1,1-5.77,3.29-11.6,6.79-17.34.26-.43.82-.57,1.25-.3.43.26.57.82.3,1.25-3.38,5.55-5.58,11.17-6.55,16.71-.33,1.87-1.25,8.18.57,10.73.29.41.2.98-.21,1.27-.16.11-.35.17-.53.17h0Z"/>
          <path class="cls-1" d="m56.95,84.75c-.25,0-.5-.1-.68-.3-.34-.38-.3-.95.07-1.29,19.28-17.22,34.43-40.6,45.03-69.52-19.06,6.98-35.76,15.93-49.67,26.64-.4.31-.97.23-1.28-.17s-.23-.97.17-1.28c14.5-11.16,31.99-20.44,51.99-27.57.33-.12.7-.04.95.21s.33.62.21.95c-10.73,30.05-26.28,54.31-46.2,72.1-.17.16-.39.23-.61.23h.02Z"/>
        </g>
      </g>
      <g>
        <g>
          <path class="cls-1" d="m128.92,23.35h6.8v42.38h9.65v6.36h-16.44V23.35h0Z"/>
          <path class="cls-1" d="m175.09,59.38c.05,1.66.07,2.78.07,3.36,0,6.36-3.14,9.86-8.84,9.86-2.78,0-4.97-1.02-6.58-3.07-1.46-1.83-1.97-3.8-1.97-7.16v-16.95c0-6.79,2.92-10.16,8.77-10.16,5.33,0,8.55,3.43,8.55,9.06v10.67h-10.96v8.04c0,2.63.66,3.73,2.27,3.73s2.41-1.31,2.41-4.31v-3.07s6.28,0,6.28,0Zm-6.36-9.43v-6.14c0-1.75-.8-2.7-2.27-2.7s-2.34,1.02-2.34,2.7v6.14h4.61Z"/>
          <path class="cls-1" d="m215.57,23.35c5.85,0,7.6.51,10.01,2.92,2.12,2.12,3,4.9,3,9.35,0,6.14-1.02,8.7-4.38,10.82,3.95,1.53,5.26,4.31,5.26,11.33,0,5.85-.66,8.55-2.56,10.81-2.12,2.49-5.26,3.51-10.67,3.51h-6.8V23.35h6.14,0Zm1.61,20.24c3.95,0,4.75-1.24,4.75-7.38,0-5.19-.95-6.5-4.75-6.5h-.95v13.88h.95Zm-.29,22.14c4.75,0,5.77-1.46,5.77-7.89s-1.02-7.89-5.77-7.89h-.66v15.78h.66Z"/>
          <path class="cls-1" d="m254.22,72.09l-.51-3.14c-2.63,2.78-4.09,3.65-5.92,3.65-1.53,0-3.14-.88-3.87-2.05-.8-1.24-1.02-2.63-1.02-6.28v-28.5h6.36v28.28c0,1.83.51,2.7,1.61,2.7.88,0,1.53-.37,2.85-1.46v-29.52h6.36v36.32h-5.86Z"/>
          <path class="cls-1" d="m279.94,35.78v4.53c1.68-3.51,3.8-5.19,6.43-5.04v7.09c-1.32-.22-1.75-.29-2.34-.29-2.78,0-4.09,1.75-4.09,5.41v24.62h-6.36v-36.32h6.36Z"/>
          <path class="cls-1" d="m315.45,59.38c.05,1.66.07,2.78.07,3.36,0,6.36-3.14,9.86-8.84,9.86-2.78,0-4.97-1.02-6.58-3.07-1.46-1.83-1.97-3.8-1.97-7.16v-16.95c0-6.79,2.92-10.16,8.77-10.16,5.33,0,8.55,3.43,8.55,9.06v10.67h-10.96v8.04c0,2.63.66,3.73,2.27,3.73s2.41-1.31,2.41-4.31v-3.07s6.28,0,6.28,0Zm-6.36-9.43v-6.14c0-1.75-.8-2.7-2.27-2.7s-2.34,1.02-2.34,2.7v6.14h4.61Z"/>
          <path class="cls-1" d="m339.85,72.09c-.22-.73-.37-1.83-.44-2.92-1.53,2.34-3.29,3.43-5.41,3.43-3.65,0-5.55-3.14-5.55-9.21,0-3.87.95-6.65,3.07-9.06,1.02-1.12,3.24-2.8,6.65-5.04.15-.07.58-.37,1.24-.8v-4.09c0-2.78-.29-3.29-1.97-3.29-1.9,0-2.34.95-2.63,5.34h-6.14c.37-3.95.73-5.63,1.68-7.31,1.39-2.56,3.87-3.87,7.16-3.87,5.33,0,8.26,3.07,8.26,8.7v22.29c0,3.07.07,4.02.66,5.85h-6.58v-.02Zm-.44-18.63c-3.43,2.85-4.6,5.26-4.6,9.43,0,2.49.66,3.8,1.97,3.8.95,0,1.75-.58,2.63-1.9v-11.33Z"/>
          <path class="cls-1" d="m365.57,35.78l.15,3.14c2.63-2.78,4.09-3.65,5.92-3.65,1.53,0,3.14.88,3.87,2.05.8,1.24,1.02,2.63,1.02,6.28v28.5h-6.36v-28.28c0-1.83-.51-2.7-1.61-2.7-.88,0-1.53.37-2.85,1.46v29.52h-6.36v-36.32h6.22Z"/>
        </g>
        <g>
          <path class="cls-1" d="m208.91,89.93c-.41,1.32-.99,2.64-2.01,3.77-1.37,1.52-3.11,2.45-4.86,2.94l-1.35-1.54c2.04-.42,3.67-1.32,4.7-2.38.74-.75,1.16-1.59,1.4-2.35h-6.57c-.33,0-1.01,0-1.58.07v-1.77c.57.04,1.16.08,1.58.08h6.73c.44,0,.8-.05.99-.14l1.21.75c-.09.18-.2.42-.26.57h.02Zm-7.59-4.45h5.24c.42,0,1.09,0,1.47-.07v1.75c-.37-.03-1.01-.04-1.5-.04h-5.21c-.44,0-1.02,0-1.41.04v-1.75c.38.05.95.07,1.41.07h0Z"/>
          <path class="cls-1" d="m225,90.68c0,.95-.79,1.74-1.74,1.74s-1.74-.79-1.74-1.74.79-1.74,1.74-1.74,1.74.79,1.74,1.74Z"/>
          <path class="cls-1" d="m240.11,86.83v2.57c1.61-.39,3.5-.99,4.71-1.51.49-.19.95-.41,1.48-.73l.74,1.73c-.53.22-1.14.48-1.59.64-1.37.54-3.56,1.22-5.33,1.66v2.52c0,.58.27.73.88.86.41.05.97.08,1.58.08,1.41,0,3.62-.18,4.73-.48v1.98c-1.28.19-3.34.29-4.84.29-.88,0-1.7-.05-2.28-.15-1.18-.22-1.86-.87-1.86-2.04v-7.41c0-.3-.04-1.01-.11-1.41h2.01c-.07.41-.11,1.03-.11,1.41h0Zm7.06-.14l-1.1.46c-.27-.56-.69-1.36-1.06-1.89l1.07-.44c.34.5.83,1.36,1.09,1.86h0Zm1.62-.62l-1.08.46c-.28-.57-.72-1.36-1.1-1.88l1.07-.44c.37.5.87,1.37,1.1,1.85h.01Z"/>
          <path class="cls-1" d="m265.82,89.93c-.11.8-.46,3.14-.67,4.43h.87c.35,0,.98,0,1.33-.05v1.75c-.27,0-.94-.04-1.31-.04h-7.15c-.49,0-.83,0-1.35.04v-1.77c.37.04.87.07,1.35.07h4.41c.19-1.16.49-3.09.53-3.85h-3.67c-.44,0-.97.04-1.36.07v-1.8c.35.04.98.08,1.35.08h3.48c.29,0,.84-.05,1.01-.15l1.32.64c-.07.18-.11.44-.14.57h0Z"/>
          <path class="cls-1" d="m278.66,89.63h7.3c.64,0,1.24-.05,1.59-.08v2.13c-.33,0-1.02-.07-1.59-.07h-7.3c-.78,0-1.69.03-2.19.07v-2.13c.49.04,1.48.08,2.19.08Z"/>
          <path class="cls-1" d="m297.96,86.23h7.48c.34,0,.86,0,1.35-.03-.03.41-.03.91-.03,1.32v6.66c0,.53.03,1.84.03,1.89h-1.88s.01-.34.01-.74h-6.56c.01.38.01.69.01.74h-1.88c0-.07.04-1.25.04-1.9v-6.65c0-.38,0-.94-.03-1.32.56,0,1.08.03,1.44.03h.02Zm.41,7.37h6.57v-5.64h-6.57v5.64Z"/>
        </g>
      </g>
    </g>
  </g>
</svg>