<svg id="グループ_4" data-name="グループ 4" xmlns="http://www.w3.org/2000/svg" xmlns:xlink="http://www.w3.org/1999/xlink" width="376.535" height="105.18" viewBox="0 0 376.535 105.18">
  <defs>
    <clipPath id="clip-path">
      <rect id="長方形_6" data-name="長方形 6" width="376.535" height="105.18" fill="#fff"/>
    </clipPath>
  </defs>
  <g id="グループ_3" data-name="グループ 3" clip-path="url(#clip-path)">
    <path id="パス_24" data-name="パス 24" d="M28.875,73.83a.714.714,0,0,1-.2-.02.924.924,0,0,1-.7-1.09c.44-2.02,2.2-3.55,3.6-4.47a59.382,59.382,0,0,1,6.81-3.72l.8-.39c5.93-2.92,10.6-5.64,12.41-11.86,2.89-9.94-4.5-18.12-11.03-25.34-1.33-1.47-2.59-2.86-3.75-4.25a53.23,53.23,0,0,1-9.77-18.54,53.486,53.486,0,0,1-9.77,18.54c-1.17,1.39-2.42,2.78-3.75,4.25C7.005,34.16-.4,42.34,2.495,52.28c1.81,6.23,6.48,8.94,12.4,11.85l.06.03.75.37a59.382,59.382,0,0,1,6.81,3.72c1.39.92,3.15,2.45,3.6,4.47a.916.916,0,0,1-1.79.39c-.31-1.42-1.71-2.6-2.82-3.34a57.776,57.776,0,0,0-6.61-3.6l-.81-.4-.06-.03C9.055,63.3,2.9,60.25.735,52.79c-3.18-10.91,4.58-19.5,11.43-27.07,1.32-1.46,2.56-2.83,3.7-4.2,4.61-5.51,7.98-12.33,10.29-20.85a.909.909,0,0,1,.88-.67.921.921,0,0,1,.88.67c2.32,8.52,5.68,15.34,10.29,20.85,1.14,1.36,2.39,2.74,3.7,4.2,6.84,7.57,14.6,16.16,11.43,27.07-2.17,7.48-8.37,10.53-13.35,12.99l-.81.4a60.268,60.268,0,0,0-6.61,3.6c-1.12.74-2.51,1.92-2.82,3.34a.908.908,0,0,1-.89.72h.02Z" transform="translate(0 0)" fill="#fff"/>
    <path id="パス_25" data-name="パス 25" d="M25.175,105.18h-.03a.9.9,0,0,1-.88-.94c.4-13.4.85-28.59-10.38-38.61a.914.914,0,1,1,1.22-1.36c11.87,10.58,11.38,26.9,10.99,40.02a.907.907,0,0,1-.91.88Z" transform="translate(0 0)" fill="#fff"/>
    <path id="パス_26" data-name="パス 26" d="M28.925,105.18a.907.907,0,0,1-.91-.88c-.39-13.11-.88-29.43,10.97-40.02a.914.914,0,1,1,1.22,1.36c-11.22,10.02-10.77,25.2-10.36,38.6a.92.92,0,0,1-.88.94Z" transform="translate(0 0)" fill="#fff"/>
    <path id="パス_27" data-name="パス 27" d="M29.585,56.1h-5.07a3.969,3.969,0,0,1-3.96-3.96V30.01a6.6,6.6,0,0,1,6.06-6.67,6.424,6.424,0,0,1,4.87,1.74,6.529,6.529,0,0,1,2.05,4.74V52.14a3.969,3.969,0,0,1-3.96,3.96Zm-2.53-30.94c-.1,0-.21,0-.31.01a4.778,4.778,0,0,0-4.35,4.85V52.15a2.132,2.132,0,0,0,2.13,2.13h5.07a2.132,2.132,0,0,0,2.13-2.13V29.83a4.671,4.671,0,0,0-4.67-4.67" transform="translate(0 0)" fill="#fff"/>
    <path id="パス_28" data-name="パス 28" d="M25.225,68.35a.913.913,0,0,1-.91-.91V55.19a.91.91,0,0,1,1.82,0V67.44a.913.913,0,0,1-.91.91" transform="translate(0 0)" fill="#fff"/>
    <path id="パス_29" data-name="パス 29" d="M28.875,68.35a.913.913,0,0,1-.91-.91V55.19a.91.91,0,0,1,1.82,0V67.44a.913.913,0,0,1-.91.91" transform="translate(0 0)" fill="#fff"/>
    <path id="パス_30" data-name="パス 30" d="M58.275,104.89a77.811,77.811,0,0,1-10.27-.68,29.856,29.856,0,0,1-13.32-4.86c-1.53-1.08-4.16-3.2-4.51-5.29a.758.758,0,0,1,0-.3c.35-2.1,2.97-4.22,4.51-5.29a29.769,29.769,0,0,1,13.31-4.86c16.71-2.24,33.68.85,51.88,9.48a.907.907,0,0,1,0,1.64c-14.26,6.76-28.21,10.17-41.61,10.17h.01ZM32.015,93.91c.28,1.02,1.68,2.51,3.72,3.95a28.112,28.112,0,0,0,12.51,4.55c15.81,2.13,31.89-.65,49.09-8.5-17.21-7.84-33.28-10.62-49.09-8.5a28.112,28.112,0,0,0-12.51,4.55c-2.01,1.41-3.45,2.94-3.72,3.95" transform="translate(0 0)" fill="#fff"/>
    <path id="パス_31" data-name="パス 31" d="M14.4,101.52a.9.9,0,0,1-.74-.38c-2.09-2.93-1.45-8.84-.88-12.1a49.8,49.8,0,0,1,6.79-17.34.909.909,0,0,1,1.55.95,48.288,48.288,0,0,0-6.55,16.71c-.33,1.87-1.25,8.18.57,10.73a.911.911,0,0,1-.21,1.27.952.952,0,0,1-.53.17Z" transform="translate(0 0)" fill="#fff"/>
    <path id="パス_32" data-name="パス 32" d="M56.955,84.75a.91.91,0,0,1-.61-1.59c19.28-17.22,34.43-40.6,45.03-69.52-19.06,6.98-35.76,15.93-49.67,26.64a.913.913,0,1,1-1.11-1.45c14.5-11.16,31.99-20.44,51.99-27.57a.9.9,0,0,1,1.16,1.16c-10.73,30.05-26.28,54.31-46.2,72.1a.878.878,0,0,1-.61.23h.02" transform="translate(0 0)" fill="#fff"/>
    <path id="パス_33" data-name="パス 33" d="M128.925,23.35h6.8V65.73h9.65v6.36h-16.44V23.35Z" transform="translate(0 0)" fill="#fff"/>
    <path id="パス_34" data-name="パス 34" d="M175.1,59.38c.05,1.66.07,2.78.07,3.36,0,6.36-3.14,9.86-8.84,9.86a7.909,7.909,0,0,1-6.58-3.07c-1.46-1.83-1.97-3.8-1.97-7.16V45.42c0-6.79,2.92-10.16,8.77-10.16,5.33,0,8.55,3.43,8.55,9.06V54.99h-10.96v8.04c0,2.63.66,3.73,2.27,3.73s2.41-1.31,2.41-4.31V59.38Zm-6.36-9.43V43.81c0-1.75-.8-2.7-2.27-2.7s-2.34,1.02-2.34,2.7v6.14Z" transform="translate(0 0)" fill="#fff"/>
    <path id="パス_35" data-name="パス 35" d="M215.575,23.35c5.85,0,7.6.51,10.01,2.92,2.12,2.12,3,4.9,3,9.35,0,6.14-1.02,8.7-4.38,10.82,3.95,1.53,5.26,4.31,5.26,11.33,0,5.85-.66,8.55-2.56,10.81-2.12,2.49-5.26,3.51-10.67,3.51h-6.8V23.35Zm1.61,20.24c3.95,0,4.75-1.24,4.75-7.38,0-5.19-.95-6.5-4.75-6.5h-.95V43.59Zm-.29,22.14c4.75,0,5.77-1.46,5.77-7.89s-1.02-7.89-5.77-7.89h-.66V65.73Z" transform="translate(0 0)" fill="#fff"/>
    <path id="パス_36" data-name="パス 36" d="M254.225,72.09l-.51-3.14c-2.63,2.78-4.09,3.65-5.92,3.65a4.8,4.8,0,0,1-3.87-2.05c-.8-1.24-1.02-2.63-1.02-6.28V35.77h6.36V64.05c0,1.83.51,2.7,1.61,2.7.88,0,1.53-.37,2.85-1.46V35.77h6.36V72.09Z" transform="translate(0 0)" fill="#fff"/>
    <path id="パス_37" data-name="パス 37" d="M279.945,35.78v4.53c1.68-3.51,3.8-5.19,6.43-5.04v7.09a13.62,13.62,0,0,0-2.34-.29c-2.78,0-4.09,1.75-4.09,5.41V72.1h-6.36V35.78Z" transform="translate(0 0)" fill="#fff"/>
    <path id="パス_38" data-name="パス 38" d="M315.455,59.38c.05,1.66.07,2.78.07,3.36,0,6.36-3.14,9.86-8.84,9.86a7.909,7.909,0,0,1-6.58-3.07c-1.46-1.83-1.97-3.8-1.97-7.16V45.42c0-6.79,2.92-10.16,8.77-10.16,5.33,0,8.55,3.43,8.55,9.06V54.99h-10.96v8.04c0,2.63.66,3.73,2.27,3.73s2.41-1.31,2.41-4.31V59.38Zm-6.36-9.43V43.81c0-1.75-.8-2.7-2.27-2.7s-2.34,1.02-2.34,2.7v6.14Z" transform="translate(0 0)" fill="#fff"/>
    <path id="パス_39" data-name="パス 39" d="M339.855,72.09a14.325,14.325,0,0,1-.44-2.92c-1.53,2.34-3.29,3.43-5.41,3.43-3.65,0-5.55-3.14-5.55-9.21,0-3.87.95-6.65,3.07-9.06a39.969,39.969,0,0,1,6.65-5.04c.15-.07.58-.37,1.24-.8V44.4c0-2.78-.29-3.29-1.97-3.29-1.9,0-2.34.95-2.63,5.34h-6.14c.37-3.95.73-5.63,1.68-7.31,1.39-2.56,3.87-3.87,7.16-3.87,5.33,0,8.26,3.07,8.26,8.7V66.26c0,3.07.07,4.02.66,5.85h-6.58Zm-.44-18.63c-3.43,2.85-4.6,5.26-4.6,9.43,0,2.49.66,3.8,1.97,3.8.95,0,1.75-.58,2.63-1.9Z" transform="translate(0 0)" fill="#fff"/>
    <path id="パス_40" data-name="パス 40" d="M365.575,35.78l.15,3.14c2.63-2.78,4.09-3.65,5.92-3.65a4.8,4.8,0,0,1,3.87,2.05c.8,1.24,1.02,2.63,1.02,6.28V72.1h-6.36V43.82c0-1.83-.51-2.7-1.61-2.7-.88,0-1.53.37-2.85,1.46V72.1h-6.36V35.78Z" transform="translate(0 0)" fill="#fff"/>
    <path id="パス_41" data-name="パス 41" d="M208.915,89.93a9.807,9.807,0,0,1-2.01,3.77,10.171,10.171,0,0,1-4.86,2.94L200.7,95.1a9.133,9.133,0,0,0,4.7-2.38,5.794,5.794,0,0,0,1.4-2.35h-6.57a13.883,13.883,0,0,0-1.58.07V88.67c.57.04,1.16.08,1.58.08h6.73a2.626,2.626,0,0,0,.99-.14l1.21.75c-.09.18-.2.42-.26.57h.02m-7.59-4.45h5.24a10.062,10.062,0,0,0,1.47-.07v1.75c-.37-.03-1.01-.04-1.5-.04h-5.21c-.44,0-1.02,0-1.41.04V85.41a12.315,12.315,0,0,0,1.41.07" transform="translate(0 0)" fill="#fff"/>
    <path id="パス_42" data-name="パス 42" d="M225.005,90.68a1.74,1.74,0,1,1-1.74-1.74,1.754,1.754,0,0,1,1.74,1.74" transform="translate(0 0)" fill="#fff"/>
    <path id="パス_43" data-name="パス 43" d="M240.115,86.83V89.4a33.118,33.118,0,0,0,4.71-1.51,9.181,9.181,0,0,0,1.48-.73l.74,1.73c-.53.22-1.14.48-1.59.64a48.38,48.38,0,0,1-5.33,1.66v2.52c0,.58.27.73.88.86a13.782,13.782,0,0,0,1.58.08,22.939,22.939,0,0,0,4.73-.48v1.98a38.637,38.637,0,0,1-4.84.29,14.454,14.454,0,0,1-2.28-.15,1.963,1.963,0,0,1-1.86-2.04V86.84a10.732,10.732,0,0,0-.11-1.41h2.01a9.892,9.892,0,0,0-.11,1.41Zm7.06-.14-1.1.46a15.38,15.38,0,0,0-1.06-1.89l1.07-.44c.34.5.83,1.36,1.09,1.86Zm1.62-.62-1.08.46a14.2,14.2,0,0,0-1.1-1.88l1.07-.44a14.033,14.033,0,0,1,1.1,1.85h.01Z" transform="translate(0 0)" fill="#fff"/>
    <path id="パス_44" data-name="パス 44" d="M265.825,89.93c-.11.8-.46,3.14-.67,4.43h.87a11.827,11.827,0,0,0,1.33-.05v1.75c-.27,0-.94-.04-1.31-.04h-7.15c-.49,0-.83,0-1.35.04V94.29a13.306,13.306,0,0,0,1.35.07h4.41c.19-1.16.49-3.09.53-3.85h-3.67c-.44,0-.97.04-1.36.07v-1.8c.35.04.98.08,1.35.08h3.48a2.987,2.987,0,0,0,1.01-.15l1.32.64a4.246,4.246,0,0,0-.14.57Z" transform="translate(0 0)" fill="#fff"/>
    <path id="パス_45" data-name="パス 45" d="M278.665,89.63h7.3c.64,0,1.24-.05,1.59-.08v2.13c-.33,0-1.02-.07-1.59-.07h-7.3c-.78,0-1.69.03-2.19.07V89.55c.49.04,1.48.08,2.19.08" transform="translate(0 0)" fill="#fff"/>
    <path id="パス_46" data-name="パス 46" d="M297.965,86.23h7.48c.34,0,.86,0,1.35-.03-.03.41-.03.91-.03,1.32v6.66c0,.53.03,1.84.03,1.89h-1.88s.01-.34.01-.74h-6.56c.01.38.01.69.01.74h-1.88c0-.07.04-1.25.04-1.9V87.52c0-.38,0-.94-.03-1.32.56,0,1.08.03,1.44.03Zm.41,7.37h6.57V87.96h-6.57Z" transform="translate(0 0)" fill="#fff"/>
  </g>
</svg>
